<?xml version="1.0" encoding="utf-8"?>
<!-- Generator: Adobe Illustrator 21.0.2, SVG Export Plug-In . SVG Version: 6.00 Build 0)  -->
<svg version="1.1" id="Layer_1" xmlns="http://www.w3.org/2000/svg" xmlns:xlink="http://www.w3.org/1999/xlink" x="0px" y="0px"
	 width="136px" height="69.2px" viewBox="0 0 136 69.2" style="enable-background:new 0 0 136 69.2;" xml:space="preserve">
<style type="text/css">
	.st0{fill:#58585A;}
	.st1{fill:#038004;}
</style>
<path class="st0" d="M46.6,17c0.1-4.7,1.9-9.5,6.1-13.1c2.2-1.9,4.8-3.1,7.6-3.6c0.4-0.1,0.4,0.1,0.4,0.4c0,0.8,0,1.5,0,2.3
	c0,0.4-0.1,0.6-0.5,0.8C57,5,54.6,7.3,52.9,10.3c-3,5.3-2.3,12.3,1.5,17c1.7,2.2,3.8,3.8,6.4,4.9c0.3,0.1,0.4,0.3,0.4,0.6
	c0,0.8,0,1.6,0,2.4c0,0.4-0.1,0.5-0.5,0.4c-4.4-1-8-3.2-10.6-6.8C47.7,25.5,46.6,21.8,46.6,17z"/>
<path class="st1" d="M74.7,34c-0.4-1,0.3-1.5,1.3-2c4.7-2.6,7.5-6.5,8.2-12c0.9-7.1-3.4-13.6-9.5-16.2c-0.4-0.2-0.5-0.3-0.5-0.7
	c0-0.7,0-1.5,0-2.2c0-0.5,0.1-0.5,0.5-0.4c7,1.7,11.6,6,13.4,12.9c1.6,5.9,0.6,11.5-3.2,16.4c-2.5,3.3-5.8,5.2-9.9,6
	c-0.4,0.1-0.4,0-0.4-0.3C74.7,35.1,74.7,34.7,74.7,34z"/>
<path class="st0" d="M107.5,52.7c-1.3-1.2-1.3-2,0.2-2.9c-0.8-0.6-1.3-1.4-1.3-2.5c0-1.5,0.9-2.7,2.3-3c1.2-0.3,2.5-0.3,3.7,0.3
	c0.3,0.1,0.4,0.1,0.6-0.1c0.4-0.3,0.9-0.5,1.5-0.6c0.3-0.1,0.5,0,0.5,0.4c0,0.2,0,0.4,0,0.6c0,0.3-0.1,0.4-0.4,0.4
	c-0.2,0-0.3,0-0.5,0.1c-0.4,0.1-0.5,0.1-0.4,0.6c0.8,1.9-0.2,3.7-2.2,4.1c-0.7,0.2-1.4,0.2-2.1,0.1c-0.5-0.1-0.8,0.2-0.9,0.6
	c-0.1,0.5,0.3,0.7,0.7,0.8c0.9,0.1,1.8,0.1,2.7,0.1c0.3,0,0.6,0,0.9,0.1c1,0.2,1.7,0.7,1.9,1.7c0.2,1-0.2,2-1.1,2.5
	c-0.3,0.2-0.6,0.3-0.9,0.4c-1.7,0.4-3.4,0.4-5.2-0.1c-0.5-0.1-0.9-0.4-1.2-0.8c-0.7-0.9-0.4-2.1,0.6-2.6
	C107.2,52.9,107.3,52.8,107.5,52.7z M111.9,47.2c0-1-0.7-1.7-1.7-1.7s-1.8,0.7-1.8,1.7s0.8,1.7,1.7,1.7
	C111.1,48.9,111.9,48.2,111.9,47.2z M110.5,55.4c0.6,0,1.3,0,1.9-0.3c0.3-0.2,0.6-0.4,0.6-0.8c0-0.4-0.3-0.6-0.7-0.7
	c-0.3-0.1-0.5-0.1-0.8-0.1c-0.7-0.1-1.5-0.1-2.2-0.2c-0.6-0.1-1.2,0.2-1.3,0.7c-0.1,0.5,0.2,1,0.8,1.2
	C109.3,55.3,109.9,55.3,110.5,55.4z"/>
<path class="st0" d="M11.1,53.2c-0.1,0-0.1,0-0.1,0c-0.7,0-1.5,0.2-2.1-0.1s-0.5-1.2-0.8-1.9c-0.4-1.2-0.1-1-1.4-1
	c-0.8,0-1.7,0-2.5,0c-0.3,0-0.5,0.1-0.6,0.4c-0.2,0.7-0.5,1.4-0.7,2.1c-0.1,0.3-0.3,0.4-0.6,0.4c-0.6,0-1.2,0-1.9,0
	c0.6-1.9,1.2-3.8,1.8-5.6c0.7-2.1,1.4-4.2,2-6.3c0.1-0.4,0.3-0.7,0.8-0.6c0.7,0.1,1.5-0.3,2,0.1c0.4,0.4,0.5,1.2,0.7,1.8
	c1.1,3.4,2.2,6.8,3.3,10.2C11,53,11,53,11.1,53.2z M4.3,48.5c0.9,0,1.7,0,2.5,0c0.2,0,0.4,0,0.3-0.3c-0.4-1.4-0.9-2.7-1.4-4.2
	C5.2,45.6,4.8,47,4.3,48.5z"/>
<path class="st0" d="M62.2,19.8c-1.6,0.1-3-0.1-4.3-1c-0.4-0.3-0.5-0.6-0.5-1c0-0.5,0.4-0.5,0.7-0.6c1.5-0.3,3-0.4,4.5-0.5
	c3.9-0.2,7.8-0.2,11.7,0.4c0.2,0,0.5,0.1,0.7,0.1c0.3,0.1,0.6,0.2,0.6,0.6s-0.3,0.6-0.7,0.6c-1.6,0.1-3.1,0.4-4.7,0.6
	C67.5,19.4,64.8,19.7,62.2,19.8z"/>
<path class="st0" d="M59.6,15c-0.4-0.1-0.9-0.1-1.4-0.3c-0.3-0.1-0.6-0.3-0.6-0.6c-0.1-0.3,0.1-0.6,0.4-0.8c0.9-0.7,1.9-1.2,2.9-1.7
	c3.8-1.8,7.7-3.5,11.8-4.5c0.2,0,0.6-0.1,0.9-0.1c0.4-0.1,0.7,0,0.8,0.4C74.5,7.8,74.3,8,74,8.2c-1.9,1-3.7,2.1-5.6,3.1
	c-2,1.1-3.9,2.1-6,3C61.6,14.7,60.6,14.9,59.6,15z"/>
<path class="st0" d="M58.8,21.8c1.3,0.1,2.5,0.4,3.6,0.7c3.9,1,7.8,2.2,11.5,4c0.4,0.2,0.7,0.4,1.1,0.6c0.3,0.2,0.5,0.4,0.4,0.8
	s-0.5,0.5-0.8,0.4c-0.7-0.2-1.5-0.4-2.2-0.5c-3.8-0.6-7.5-1.5-11.1-2.6c-1.2-0.4-2.2-1.1-3-2.1c-0.2-0.2-0.4-0.5-0.2-0.9
	C58.2,21.9,58.5,21.7,58.8,21.8z"/>
<path class="st0" d="M83.5,45.5c0.3-0.2,0.6-0.4,0.9-0.6c0.7-0.5,1.4-0.7,2.2-0.7c1.1,0,1.9,0.6,1.9,1.8c0.1,2.3,0,4.6,0,6.9
	c0,0.2-0.1,0.3-0.3,0.3c-1.8,0.2-1.8,0.2-1.8-1.6c0-1.5,0-3,0-4.5c0-1-0.5-1.4-1.5-1c-0.5,0.2-0.9,0.5-1.3,0.8
	c-0.2,0.2-0.2,0.4-0.2,0.6c0,1.7,0,3.4,0,5.1c0,0.4-0.1,0.6-0.6,0.6c-0.5-0.1-1.2,0.2-1.5-0.1s-0.1-1-0.1-1.5c0-2.2,0-4.4,0-6.6
	c0-0.5,0.2-0.7,0.7-0.6c0.1,0,0.2,0,0.3,0C83.4,44.3,83.4,44.3,83.5,45.5z"/>
<path class="st0" d="M101.9,49.1c-0.8,0-1.6,0-2.4,0c-0.3,0-0.4,0.1-0.4,0.4c0.1,1,0.6,1.7,1.4,2c0.9,0.2,1.6-0.1,2.1-0.9
	c0.1-0.2,0.3-0.2,0.5-0.1c0.3,0.2,0.7,0.3,1.1,0.4c0.3,0.1,0.3,0.3,0.2,0.5c-0.9,1.5-2.8,2.2-4.6,1.7c-1.7-0.5-2.8-2-2.9-4
	c0-0.6,0-1.2,0.1-1.8c0.3-1.6,1.6-2.8,3.2-3.1s3.2,0.3,4,1.6c0.6,0.9,0.6,1.9,0.6,2.9c0,0.3-0.2,0.3-0.4,0.3
	C103.5,49.1,102.7,49.1,101.9,49.1z M101,47.8c0.5,0,1,0,1.5,0c0.3,0,0.4-0.1,0.4-0.4c-0.1-0.9-0.8-1.7-1.6-1.8
	c-0.9-0.1-1.7,0.4-1.9,1.4c-0.2,0.8-0.2,0.8,0.6,0.8C100.2,47.8,100.6,47.8,101,47.8z"/>
<path class="st0" d="M26.5,51.9c-0.6,0.6-1.3,1.1-2.1,1.3c-1.5,0.4-2.8-0.4-2.9-2c-0.1-2.2,0-4.4,0-6.6c0-0.3,0.1-0.4,0.4-0.3
	c0,0,0,0,0.1,0c1.8-0.1,1.8-0.1,1.8,1.7c0,1.4,0,2.8,0,4.2c0,1.1,0.7,1.5,1.7,1.1c0.8-0.4,1.3-0.8,1.3-1.9c-0.1-1.5,0-3,0-4.5
	c0-0.4,0.1-0.6,0.5-0.6c1.6,0,1.6,0,1.6,1.6c0,2.2,0,4.5,0,6.7c0,0.4-0.1,0.6-0.6,0.6c-0.1,0-0.2,0-0.3,0c-0.4,0-0.9,0.1-1.3-0.1
	C26.4,53,26.7,52.4,26.5,51.9z"/>
<path class="st0" d="M130.3,49.3c0,1.2-0.1,2.4,0.2,3.5c0.1,0.2,0,0.3-0.2,0.3c-0.3,0-0.7,0-1,0c-0.4,0-0.6-0.1-0.7-0.5
	c0-0.4-0.2-0.3-0.4-0.1c-0.7,0.5-1.5,0.8-2.4,0.8c-1.2,0-2.1-0.7-2.5-1.7c-0.4-0.9,0-2.1,0.8-2.8c0.7-0.7,1.6-1,2.6-1.2
	c0.3-0.1,0.7-0.1,1-0.2c0.3-0.1,0.7,0.1,0.8-0.3c0.1-0.4,0-0.8-0.4-1.2c-0.6-0.5-1.8-0.5-2.6,0.1c-0.3,0.2-0.5,0.6-0.7,0.6
	c-0.3-0.1-0.6-0.4-0.9-0.7c-0.3-0.2-0.3-0.4,0-0.7c1.2-1.2,3.4-1.6,5-0.9c1,0.5,1.5,1.3,1.5,2.4C130.3,47.7,130.3,48.5,130.3,49.3z
	 M128.4,49.9c0-0.3,0-0.6,0-0.9c0-0.2,0-0.3-0.2-0.3c-1,0.2-2.1,0.4-2.8,1.3c-0.3,0.4-0.4,0.9-0.1,1.3c0.2,0.4,0.6,0.6,1.1,0.6
	c0.7-0.1,1.4-0.4,1.9-0.9C128.6,50.7,128.3,50.2,128.4,49.9z"/>
<path class="st0" d="M67.8,53.2c-0.6,0-1.1,0-1.6,0c-0.6,0-0.3-0.6-0.6-0.8c-0.2,0-0.3,0.2-0.5,0.3c-0.9,0.6-1.8,0.8-2.8,0.6
	c-1.8-0.5-2.5-2.4-1.5-3.9c0.5-0.8,1.3-1.2,2.2-1.5c0.7-0.3,1.5-0.4,2.2-0.5c0.3,0,0.4-0.1,0.4-0.4c0-0.7-0.5-1.2-1.2-1.3
	c-0.9-0.1-1.6,0.1-2.2,0.8c-0.3,0.3-0.5,0.3-0.8,0c-1-0.8-1-0.9,0.1-1.6c1.3-0.8,2.7-0.9,4.2-0.5c1.1,0.4,1.7,1.4,1.8,2.7
	c0,0.7,0,1.3,0,2s0,1.4,0,2C67.5,51.8,67.6,52.5,67.8,53.2z M65.6,49.8c0-0.3,0-0.5,0-0.8c0.1-0.4-0.1-0.5-0.5-0.4
	c-0.2,0.1-0.4,0.1-0.6,0.1c-0.7,0.2-1.4,0.4-1.9,1.1c-0.3,0.4-0.4,0.9-0.2,1.4s0.7,0.7,1.2,0.6c0.7-0.1,1.3-0.4,1.8-0.9
	C65.8,50.7,65.5,50.2,65.6,49.8z"/>
<path class="st0" d="M31,51.7c0.1-0.1,0.2-0.1,0.2-0.2c0.6-0.5,1.1-0.8,1.9-0.2c0.5,0.4,1.3,0.4,2,0.3c0.5-0.1,0.9-0.3,0.9-0.8
	c0.1-0.5-0.3-0.8-0.7-0.9c-0.3-0.1-0.7-0.2-1-0.2c-0.5-0.1-0.9-0.2-1.3-0.4c-1.2-0.4-1.9-1.4-1.8-2.4c0.1-1.2,0.7-2,1.8-2.4
	c1.8-0.7,3.4-0.3,4.9,0.9c-0.4,0.3-0.7,0.6-1.1,0.9c-0.2,0.2-0.3,0-0.5,0c-0.5-0.3-0.9-0.6-1.4-0.6s-0.9,0-1.3,0.3
	c-0.5,0.5-0.5,1.2,0.2,1.5c0.3,0.2,0.7,0.3,1.1,0.4c0.6,0.1,1.1,0.3,1.7,0.5c1,0.3,1.7,1,1.7,2c0.1,1.1-0.5,1.9-1.4,2.5
	C35,53.9,32.3,53.4,31,51.7z"/>
<path class="st0" d="M14.7,48.4c0,0.8,0.1,1.4,0.3,2c0.2,0.7,0.6,1.1,1.3,1.2c0.6,0.1,1.2-0.3,1.5-1c0.2-0.5,0.4-0.5,0.8-0.3
	c1.2,0.6,1.3,0.8,0.4,1.9c-1.2,1.4-3.6,1.6-5.1,0.3c-2.2-1.9-2.1-6,0.3-7.7c1.8-1.3,4.2-0.8,5.2,1.1c0.2,0.4,0.1,0.5-0.3,0.6
	c-0.2,0-0.4,0.1-0.6,0.2c-0.5,0.2-0.8,0.2-1.1-0.3c-0.7-0.9-1.9-0.6-2.4,0.5C14.7,47.3,14.6,47.8,14.7,48.4z"/>
<path class="st0" d="M58.7,46.4c-0.5,0.1-1,0.3-1.5,0.4c-0.3,0.1-0.4,0-0.5-0.2c-0.4-0.5-0.9-0.8-1.5-0.6c-0.7,0.2-1,0.7-1.2,1.3
	c-0.3,1.1-0.2,2.2,0.2,3.2c0.2,0.6,0.6,1,1.3,1.1s1.2-0.3,1.4-0.9c0.2-0.6,0.5-0.6,1-0.3C59,51,59,51,58.3,52.1
	c-1.2,1.7-3.9,1.9-5.5,0.3C51,50.5,51,47,52.9,45.2C54.8,43.4,57.8,44,58.7,46.4z"/>
<path class="st0" d="M40.8,48.6c0-0.7,0-1.4,0-2.2c0-0.4-0.1-0.6-0.5-0.5c-0.3,0-0.7,0.2-0.8-0.1c-0.1-0.4-0.1-0.9,0-1.3
	c0.1-0.3,0.4-0.2,0.7-0.1c0.5,0,0.7-0.1,0.7-0.7c-0.1-0.6,0-1.2,0-1.8c0-0.3,0.1-0.4,0.4-0.4c1.8-0.1,1.8-0.1,1.8,1.7c0,0,0,0,0,0.1
	c0,1.1,0,1.1,1.1,1.1c0.4,0,0.6,0.1,0.5,0.5c0,0.1,0,0.3,0,0.4c0.1,0.5-0.1,0.7-0.6,0.6c-1,0-1,0-1,1c0,1.2,0,2.4,0,3.6
	c0,0.8,0.2,1,1,1.1c0.5,0,0.6,0.2,0.6,0.6c0,1.3,0,1.3-1.3,1.2c-1.6-0.1-2.5-1.1-2.5-2.7C40.8,50,40.8,49.3,40.8,48.6L40.8,48.6z"/>
<path class="st0" d="M93.8,42.9L93.8,42.9c0,0.5-0.1,1,0.1,1.3s0.7,0.1,1.1,0.1c0.3,0,0.4,0.1,0.4,0.4c0.1,1.2,0.1,1.2-1.1,1.2
	c-0.5,0-0.5,0.2-0.5,0.6c0,1.3,0,2.6,0,3.9c0,0.9,0.2,1.1,1.1,1.2c0.4,0,0.5,0.2,0.5,0.6c0,1.4,0,1.4-1.4,1.3
	c-1.5-0.2-2.3-1.1-2.3-2.6c0-1.4,0-2.8,0-4.3c0-0.5-0.1-0.6-0.6-0.6c-0.2,0-0.7,0.2-0.7-0.1c-0.1-0.4-0.1-0.9,0-1.3
	c0.1-0.3,0.5-0.2,0.7-0.1c0.5,0.1,0.7-0.1,0.7-0.7c0-0.6,0-1.2,0-1.8c0-0.3,0.1-0.5,0.4-0.4c0.1,0,0.3,0,0.4,0
	C93.8,41.5,93.8,41.5,93.8,42.9z"/>
<path class="st0" d="M75.8,46.9c0-1.9,0-3.8,0-5.7c0-0.4,0.1-0.6,0.5-0.5c0.4,0,0.9,0,1.3,0s0.6,0.1,0.5,0.5c0,3.8,0,7.6,0,11.4
	c0,0.4-0.1,0.6-0.5,0.5C77,53,76.2,53.4,75.8,53c-0.3-0.4-0.1-1.1-0.1-1.7C75.8,49.9,75.8,48.4,75.8,46.9z"/>
<path class="st0" d="M135.5,46.9c0,2,0,3.9,0,5.9c0,0.4-0.1,0.5-0.5,0.5c-1.7,0-1.7,0-1.7-1.6c0-3.5,0-7,0-10.4
	c0-0.5,0.1-0.6,0.6-0.6c1.6,0,1.6,0,1.6,1.6C135.5,43.7,135.5,45.3,135.5,46.9L135.5,46.9z"/>
<path class="st0" d="M118.8,46.5c0.3-0.5,0.6-0.8,0.8-1.1c0.3-0.4,0.7-0.7,1.2-1c0.9-0.4,1-0.4,1,0.6v0.1c0,0.4,0.1,0.8,0,1.1
	c-0.2,0.4-0.6,0.2-1,0.3c-1.2,0.4-1.9,1.4-1.9,2.6c0,1.2,0,2.4,0,3.6c0,0.4-0.1,0.5-0.5,0.5c-1.8,0-1.8,0.1-1.7-1.7
	c0-2.2,0-4.4,0-6.6c0-0.5,0.1-0.7,0.6-0.6c0.2,0,0.5,0,0.8,0c0.9,0,0.8-0.2,0.9,0.9C118.8,45.6,118.8,45.9,118.8,46.5z"/>
<path class="st0" d="M46.8,48.8c0-1.3,0-2.7,0-4c0-0.4,0.1-0.5,0.5-0.5c1.7,0,1.7,0,1.7,1.7c0,2.2,0,4.4,0,6.6
	c0,0.4-0.1,0.6-0.6,0.6c-1.6,0-1.6,0-1.6-1.6C46.8,50.7,46.8,49.8,46.8,48.8z"/>
<path class="st0" d="M23.6,43.3c0.7-0.9,1.4-1.6,2-2.3c0.1-0.1,0.2-0.2,0.4-0.2c0.7,0,1.4,0,2.3,0c-1.1,0.9-2.1,1.7-3.1,2.4
	C24.8,43.5,24.2,43.3,23.6,43.3z"/>
<path class="st0" d="M46.8,41.6c0-1.1,0-1.1,1-1.1c1.1,0,1.1,0,1.1,1.1s0,1.1-1.1,1.1C46.8,42.8,46.8,42.8,46.8,41.6z"/>
<g>
	<path class="st1" d="M56.4,63.1l0.1-1.4h-0.1L56,62.9L53.7,67h-0.3l-2.5-4.1l-0.5-1.2h-0.1l0.2,1.4v6.1h-1v-9.1h0.8l2.8,4.7l0.4,1
		h0l0.4-1l2.7-4.6h0.8v9.1h-1.1V63.1z"/>
	<path class="st1" d="M64.4,68.6c-0.3,0.2-0.6,0.4-1,0.5c-0.4,0.1-0.8,0.2-1.3,0.2c-0.5,0-0.9-0.1-1.3-0.2c-0.4-0.2-0.7-0.4-0.9-0.7
		c-0.2-0.3-0.4-0.7-0.5-1.1c-0.1-0.4-0.2-0.9-0.2-1.4c0-1.1,0.2-2,0.7-2.5c0.5-0.6,1.2-0.9,2.1-0.9c0.3,0,0.6,0,0.9,0.1
		c0.3,0.1,0.6,0.2,0.8,0.4c0.2,0.2,0.4,0.4,0.6,0.8c0.1,0.3,0.2,0.8,0.2,1.3c0,0.3,0,0.6-0.1,0.9h-4.2c0,0.4,0,0.7,0.1,1
		s0.2,0.5,0.4,0.7c0.2,0.2,0.4,0.4,0.6,0.5c0.3,0.1,0.6,0.2,1,0.2c0.3,0,0.6-0.1,0.9-0.2c0.3-0.1,0.5-0.2,0.7-0.4L64.4,68.6z
		 M62.1,63.4c-0.5,0-0.9,0.1-1.2,0.4c-0.3,0.3-0.5,0.7-0.6,1.4h3.2c0-0.7-0.1-1.1-0.4-1.4C63,63.6,62.6,63.4,62.1,63.4z M62.4,59.8
		h1.2v0.3l-1.3,1.7h-0.6L62.4,59.8z"/>
	<path class="st1" d="M67.6,65.8l-2.2-3.2h1.3l1.2,1.8l0.4,0.7l0.4-0.7l1.3-1.8h1.2l-2.2,3.1l2.3,3.4H70l-1.4-2l-0.4-0.8l-0.4,0.8
		l-1.4,2h-1.2L67.6,65.8z"/>
	<path class="st1" d="M72.6,60.7c0-0.2,0.1-0.4,0.2-0.5C73,60,73.1,60,73.3,60s0.4,0.1,0.5,0.2c0.1,0.1,0.2,0.3,0.2,0.5
		s-0.1,0.4-0.2,0.5c-0.1,0.1-0.3,0.2-0.5,0.2s-0.4-0.1-0.5-0.2C72.7,61.1,72.6,60.9,72.6,60.7z M72.9,62.7h1v6.5h-1V62.7z"/>
	<path class="st1" d="M80.6,68.7c-0.3,0.2-0.6,0.3-0.9,0.4c-0.4,0.1-0.7,0.1-1.1,0.1c-0.5,0-0.9-0.1-1.3-0.2
		c-0.3-0.2-0.6-0.4-0.9-0.7s-0.4-0.7-0.5-1.1c-0.1-0.4-0.1-0.9-0.1-1.4c0-1.1,0.2-1.9,0.7-2.5s1.2-0.9,2.1-0.9c0.4,0,0.8,0,1.1,0.1
		c0.3,0.1,0.6,0.2,0.8,0.3l-0.3,0.9c-0.2-0.1-0.4-0.2-0.7-0.3c-0.2-0.1-0.5-0.1-0.8-0.1c-1.2,0-1.8,0.8-1.8,2.5c0,0.3,0,0.6,0.1,0.9
		c0.1,0.3,0.2,0.6,0.3,0.8s0.4,0.4,0.6,0.6s0.6,0.2,0.9,0.2c0.3,0,0.6,0,0.8-0.1c0.2-0.1,0.4-0.2,0.6-0.3L80.6,68.7z"/>
	<path class="st1" d="M81.3,65.9c0-1.1,0.2-1.9,0.7-2.5c0.5-0.6,1.2-0.9,2.1-0.9c0.5,0,0.9,0.1,1.3,0.2c0.4,0.2,0.7,0.4,0.9,0.7
		c0.2,0.3,0.4,0.7,0.5,1.1c0.1,0.4,0.2,0.9,0.2,1.4c0,1.1-0.2,1.9-0.7,2.5c-0.5,0.6-1.2,0.9-2.1,0.9c-0.5,0-0.9-0.1-1.3-0.2
		c-0.4-0.2-0.7-0.4-0.9-0.7c-0.2-0.3-0.4-0.7-0.5-1.1C81.4,66.9,81.3,66.4,81.3,65.9z M82.4,65.9c0,0.3,0,0.6,0.1,0.9
		s0.2,0.6,0.3,0.8s0.3,0.4,0.5,0.5s0.5,0.2,0.8,0.2c1.2,0,1.8-0.8,1.8-2.5c0-0.3,0-0.7-0.1-1c-0.1-0.3-0.2-0.6-0.3-0.8
		s-0.3-0.4-0.5-0.5c-0.2-0.1-0.5-0.2-0.8-0.2C83,63.4,82.4,64.2,82.4,65.9z"/>
</g>
</svg>
